<?xml version="1.0" encoding="utf-8"?>
<!-- Generator: Adobe Illustrator 12.0.0, SVG Export Plug-In . SVG Version: 6.00 Build 51448)  -->
<!DOCTYPE svg PUBLIC "-//W3C//DTD SVG 1.1//EN" "http://www.w3.org/Graphics/SVG/1.1/DTD/svg11.dtd" [
	<!ENTITY ns_svg "http://www.w3.org/2000/svg">
	<!ENTITY ns_xlink "http://www.w3.org/1999/xlink">
]>
<svg  version="1.1" id="Laag_1" xmlns="&ns_svg;" xmlns:xlink="&ns_xlink;" width="102.047" height="102.047"
	 viewBox="0 0 102.047 102.047" overflow="visible" enable-background="new 0 0 102.047 102.047" xml:space="preserve">
<g>
	<rect fill="#005DAA" width="102.047" height="102.047"/>
	<g>
		<rect y="35.307" fill="none" width="102.047" height="66.74"/>
		<g>
			<g>
				<g>
					<path fill="#FFFFFF" d="M19.054,58.471c-0.145,0.48-0.384,0.912-0.72,1.291c-0.337,0.379-0.783,0.68-1.343,0.908
						c-0.558,0.229-1.25,0.342-2.078,0.342c-1.372,0-2.434-0.361-3.177-1.082c-0.741-0.723-1.115-1.785-1.115-3.189v-0.91h1.957
						v0.619c0,0.428,0.035,0.82,0.105,1.176c0.069,0.361,0.188,0.67,0.361,0.932c0.17,0.264,0.413,0.465,0.722,0.609
						c0.313,0.146,0.709,0.217,1.191,0.219c0.896,0,1.511-0.244,1.848-0.725c0.338-0.482,0.506-1.131,0.506-1.943V45.93h1.959
						v11.072C19.271,57.498,19.2,57.988,19.054,58.471z"/>
					<path fill="#FFFFFF" d="M22.118,50.4c0.297-0.93,0.738-1.752,1.332-2.471c0.592-0.715,1.33-1.285,2.209-1.713
						c0.883-0.428,1.908-0.641,3.076-0.641c1.172,0,2.198,0.213,3.08,0.641c0.881,0.426,1.616,0.998,2.21,1.713
						c0.591,0.719,1.035,1.541,1.331,2.471c0.295,0.932,0.443,1.896,0.443,2.902s-0.148,1.973-0.443,2.904
						c-0.296,0.928-0.74,1.752-1.331,2.469c-0.594,0.717-1.329,1.285-2.21,1.705c-0.882,0.42-1.908,0.631-3.08,0.631
						c-1.168,0-2.193-0.211-3.076-0.631c-0.879-0.42-1.617-0.988-2.209-1.705c-0.594-0.717-1.035-1.541-1.332-2.469
						c-0.296-0.932-0.443-1.898-0.443-2.904S21.822,51.33,22.118,50.4z M23.92,55.506c0.194,0.723,0.497,1.377,0.91,1.955
						c0.415,0.58,0.945,1.043,1.594,1.395c0.646,0.352,1.415,0.529,2.312,0.527c0.898,0,1.668-0.176,2.32-0.527
						c0.645-0.352,1.174-0.816,1.588-1.395c0.413-0.578,0.717-1.232,0.91-1.955s0.289-1.457,0.289-2.201s-0.096-1.477-0.289-2.203
						c-0.193-0.721-0.497-1.373-0.91-1.953c-0.414-0.578-0.943-1.043-1.588-1.395c-0.652-0.35-1.422-0.527-2.32-0.527
						c-0.896,0-1.665,0.178-2.312,0.527c-0.648,0.352-1.179,0.816-1.594,1.395c-0.413,0.58-0.716,1.232-0.91,1.955
						c-0.192,0.725-0.29,1.457-0.29,2.201S23.728,54.783,23.92,55.506z"/>
					<path fill="#FFFFFF" d="M40.166,45.93v6.34h7.777v-6.34h1.956v14.754h-1.956V53.92h-7.777v6.764h-1.958V45.93H40.166z"/>
					<path fill="#FFFFFF" d="M55.188,45.93l7.762,11.961h0.045V45.93h1.856v14.752h-2.147l-7.704-11.838h-0.043v11.84h-1.854V45.93
						H55.188z"/>
				</g>
				<g>
					<path fill="#FFFFFF" d="M18.849,69.045c-0.653-0.475-1.49-0.713-2.508-0.713c-0.415,0-0.82,0.041-1.222,0.125
						c-0.397,0.08-0.753,0.221-1.063,0.412c-0.309,0.193-0.556,0.451-0.741,0.775c-0.187,0.324-0.282,0.727-0.282,1.209
						c0,0.453,0.135,0.822,0.404,1.107c0.269,0.281,0.627,0.512,1.074,0.689c0.451,0.18,0.957,0.328,1.52,0.445
						c0.566,0.117,1.143,0.246,1.728,0.383c0.587,0.137,1.16,0.301,1.728,0.486c0.563,0.184,1.07,0.438,1.52,0.754
						c0.445,0.316,0.805,0.717,1.073,1.197c0.271,0.482,0.404,1.088,0.404,1.818c0,0.785-0.179,1.457-0.525,2.016
						c-0.354,0.557-0.804,1.012-1.356,1.365c-0.551,0.354-1.164,0.605-1.85,0.764c-0.682,0.156-1.358,0.236-2.033,0.236
						c-0.828,0.002-1.61-0.102-2.348-0.309c-0.735-0.207-1.383-0.518-1.939-0.938c-0.56-0.418-1-0.955-1.321-1.609
						c-0.327-0.654-0.488-1.43-0.488-2.324h1.856c0,0.619,0.121,1.152,0.359,1.602c0.243,0.447,0.559,0.816,0.954,1.105
						c0.394,0.289,0.851,0.502,1.374,0.639c0.523,0.139,1.063,0.207,1.613,0.207c0.441,0,0.889-0.041,1.336-0.123
						c0.445-0.084,0.852-0.225,1.21-0.424s0.647-0.471,0.869-0.816c0.22-0.344,0.331-0.787,0.331-1.324
						c0-0.508-0.135-0.924-0.403-1.238c-0.271-0.318-0.627-0.576-1.073-0.775c-0.451-0.199-0.956-0.361-1.521-0.486
						c-0.568-0.123-1.14-0.25-1.728-0.383c-0.584-0.131-1.162-0.283-1.726-0.455c-0.565-0.172-1.073-0.398-1.521-0.682
						c-0.447-0.281-0.805-0.646-1.074-1.096c-0.269-0.447-0.406-1.01-0.406-1.684c0-0.742,0.156-1.389,0.455-1.934
						c0.305-0.543,0.703-0.992,1.208-1.344c0.501-0.352,1.073-0.611,1.713-0.785c0.639-0.172,1.298-0.258,1.972-0.258
						c0.758,0,1.461,0.09,2.107,0.268c0.648,0.18,1.216,0.463,1.707,0.846c0.488,0.387,0.873,0.871,1.156,1.455
						c0.283,0.588,0.437,1.287,0.466,2.098h-1.86C19.888,70.287,19.503,69.52,18.849,69.045z"/>
					<path fill="#FFFFFF" d="M27.583,67.035l4.644,12.396l4.669-12.396h2.686v14.75h-1.854V69.512h-0.041l-4.609,12.273h-1.674
						l-4.608-12.273h-0.041v12.273h-1.855v-14.75H27.583z"/>
					<path fill="#FFFFFF" d="M44.896,67.035v14.75H42.94v-14.75H44.896z"/>
					<path fill="#FFFFFF" d="M46.642,68.688v-1.652h11.787v1.652h-4.913v13.098h-1.959V68.688H46.642z"/>
				</g>
				<g>
					<path fill="#FFFFFF" d="M14.759,91.402l-1.027-3.789h-0.014l-1.041,3.789h-0.625l-1.154-4.508h0.609l0.885,3.748h0.014
						l1.011-3.748h0.649l0.996,3.748h0.013l0.915-3.748h0.6l-1.206,4.508H14.759z"/>
					<path fill="#FFFFFF" d="M18.303,88.26c0.091-0.283,0.226-0.537,0.407-0.754c0.181-0.221,0.406-0.396,0.676-0.525
						c0.268-0.131,0.582-0.197,0.941-0.197c0.357,0,0.671,0.066,0.94,0.197c0.269,0.129,0.495,0.305,0.676,0.525
						c0.181,0.217,0.315,0.471,0.405,0.754c0.092,0.283,0.139,0.578,0.139,0.889c0,0.307-0.047,0.602-0.139,0.885
						c-0.09,0.285-0.225,0.537-0.405,0.756s-0.407,0.393-0.676,0.521c-0.27,0.129-0.583,0.193-0.94,0.193
						c-0.359,0-0.674-0.064-0.941-0.193c-0.27-0.129-0.495-0.303-0.676-0.521c-0.182-0.219-0.316-0.471-0.407-0.756
						c-0.093-0.283-0.136-0.578-0.136-0.885C18.167,88.838,18.21,88.543,18.303,88.26z M18.853,89.82
						c0.061,0.221,0.152,0.42,0.279,0.596c0.125,0.178,0.287,0.32,0.486,0.428c0.197,0.105,0.434,0.16,0.709,0.16
						c0.274,0,0.51-0.055,0.707-0.16c0.199-0.107,0.361-0.25,0.486-0.428c0.128-0.176,0.22-0.375,0.277-0.596
						c0.061-0.221,0.09-0.445,0.09-0.672c0-0.229-0.029-0.451-0.09-0.672c-0.058-0.223-0.149-0.422-0.277-0.6
						c-0.125-0.176-0.287-0.318-0.486-0.426c-0.197-0.107-0.433-0.16-0.707-0.16c-0.275,0-0.512,0.053-0.709,0.16
						c-0.199,0.107-0.361,0.25-0.486,0.426c-0.127,0.178-0.219,0.377-0.279,0.6c-0.058,0.221-0.088,0.443-0.088,0.672
						C18.765,89.375,18.795,89.6,18.853,89.82z"/>
					<path fill="#FFFFFF" d="M25.11,86.895l2.375,3.654h0.011v-3.654h0.569v4.508h-0.656l-2.355-3.617h-0.011v3.617h-0.57v-4.508
						H25.11z"/>
					<path fill="#FFFFFF" d="M30.925,86.895v4.508h-0.6v-4.508H30.925z"/>
					<path fill="#FFFFFF" d="M33.829,86.895l2.375,3.654h0.01v-3.654h0.569v4.508h-0.657l-2.354-3.617h-0.014v3.617H33.19v-4.508
						H33.829z"/>
					<path fill="#FFFFFF" d="M41.732,91.348c-0.259,0.105-0.524,0.156-0.788,0.156c-0.336,0-0.637-0.063-0.902-0.188
						c-0.266-0.123-0.491-0.291-0.676-0.502c-0.186-0.209-0.328-0.453-0.424-0.727s-0.145-0.559-0.145-0.852
						c0-0.33,0.047-0.643,0.136-0.939c0.092-0.297,0.226-0.559,0.404-0.779c0.179-0.225,0.401-0.402,0.671-0.535
						c0.266-0.131,0.578-0.199,0.936-0.199c0.244,0,0.475,0.029,0.69,0.086c0.218,0.057,0.411,0.146,0.58,0.27
						c0.171,0.123,0.313,0.277,0.429,0.463c0.117,0.189,0.197,0.416,0.238,0.678h-0.6c-0.028-0.17-0.084-0.318-0.166-0.443
						c-0.078-0.123-0.177-0.227-0.295-0.305c-0.117-0.082-0.253-0.141-0.4-0.18c-0.15-0.039-0.309-0.061-0.477-0.061
						c-0.275,0-0.511,0.055-0.705,0.164c-0.195,0.109-0.356,0.254-0.479,0.432c-0.125,0.18-0.217,0.383-0.276,0.613
						c-0.057,0.229-0.087,0.465-0.087,0.703c0,0.236,0.035,0.463,0.103,0.68c0.066,0.219,0.166,0.408,0.294,0.576
						c0.132,0.166,0.294,0.297,0.484,0.396c0.19,0.098,0.414,0.148,0.667,0.148c0.234,0,0.441-0.037,0.624-0.113
						s0.335-0.18,0.458-0.313s0.221-0.289,0.281-0.467c0.064-0.18,0.092-0.373,0.082-0.578h-1.438v-0.508h1.974v2.379h-0.377
						L42.39,90.84C42.212,91.074,41.995,91.246,41.732,91.348z"/>
					<path fill="#FFFFFF" d="M45.694,86.895v4.508h-0.598v-4.508H45.694z"/>
					<path fill="#FFFFFF" d="M48.599,86.895l2.376,3.654h0.01v-3.654h0.57v4.508h-0.657l-2.355-3.617H48.53v3.617h-0.567v-4.508
						H48.599z"/>
					<path fill="#FFFFFF" d="M55.912,86.895c0.427,0,0.762,0.105,1.004,0.316c0.244,0.209,0.363,0.498,0.363,0.863
						c0,0.275-0.063,0.516-0.189,0.721c-0.119,0.205-0.32,0.346-0.593,0.424v0.012c0.129,0.025,0.237,0.066,0.317,0.125
						c0.083,0.061,0.148,0.131,0.199,0.213c0.046,0.082,0.082,0.174,0.104,0.275c0.025,0.102,0.042,0.205,0.055,0.314
						c0.008,0.109,0.014,0.219,0.016,0.334c0.009,0.113,0.019,0.225,0.034,0.336c0.016,0.107,0.043,0.211,0.073,0.311
						c0.032,0.098,0.078,0.186,0.142,0.264H56.77c-0.043-0.049-0.072-0.111-0.085-0.191c-0.017-0.08-0.026-0.168-0.03-0.268
						c-0.006-0.1-0.008-0.205-0.014-0.318c-0.002-0.113-0.017-0.225-0.039-0.334c-0.014-0.109-0.036-0.213-0.061-0.313
						c-0.026-0.098-0.066-0.186-0.121-0.258c-0.053-0.074-0.126-0.133-0.215-0.178c-0.087-0.043-0.206-0.064-0.352-0.064h-1.467
						v1.924h-0.598v-4.508H55.912z M56.036,88.939c0.126-0.021,0.236-0.061,0.331-0.123s0.171-0.143,0.229-0.246
						c0.055-0.104,0.085-0.236,0.085-0.4c0-0.227-0.062-0.412-0.19-0.557c-0.123-0.141-0.328-0.213-0.612-0.213h-1.491v1.57h1.253
						C55.778,88.971,55.912,88.961,56.036,88.939z"/>
					<path fill="#FFFFFF" d="M59.999,86.895v4.508h-0.598v-4.508H59.999z"/>
					<path fill="#FFFFFF" d="M64.998,87.531c-0.23-0.16-0.502-0.24-0.816-0.24c-0.272,0-0.502,0.051-0.692,0.15
						c-0.193,0.102-0.352,0.238-0.475,0.408c-0.124,0.172-0.217,0.367-0.273,0.584c-0.061,0.219-0.089,0.445-0.089,0.682
						c0,0.258,0.028,0.5,0.089,0.729c0.057,0.23,0.149,0.432,0.273,0.602c0.123,0.172,0.283,0.307,0.477,0.408
						c0.192,0.1,0.424,0.15,0.696,0.15c0.194,0,0.372-0.033,0.525-0.096c0.153-0.068,0.285-0.156,0.396-0.273
						c0.112-0.115,0.201-0.254,0.264-0.414c0.063-0.158,0.097-0.332,0.113-0.516h0.599c-0.06,0.566-0.255,1.008-0.588,1.324
						c-0.332,0.316-0.788,0.475-1.363,0.475c-0.349,0-0.652-0.063-0.915-0.18c-0.258-0.121-0.476-0.287-0.647-0.496
						c-0.174-0.211-0.302-0.461-0.387-0.746c-0.089-0.285-0.13-0.594-0.13-0.922c0-0.33,0.045-0.637,0.138-0.926
						c0.091-0.289,0.228-0.541,0.404-0.756c0.18-0.215,0.403-0.385,0.67-0.508c0.266-0.125,0.575-0.188,0.921-0.188
						c0.234,0,0.457,0.031,0.667,0.096c0.209,0.063,0.399,0.156,0.563,0.279c0.163,0.121,0.3,0.273,0.409,0.457
						c0.108,0.184,0.184,0.395,0.215,0.635h-0.599C65.375,87.93,65.226,87.691,64.998,87.531z"/>
					<path fill="#FFFFFF" d="M68.692,86.895v1.938h2.373v-1.938h0.598v4.508h-0.598V89.34h-2.373v2.063h-0.597v-4.508H68.692z"/>
					<path fill="#FFFFFF" d="M73.435,87.4v-0.506h3.604V87.4h-1.5v4.002h-0.6V87.4H73.435z"/>
					<path fill="#FFFFFF" d="M79.424,86.895v4.508h-0.6v-4.508H79.424z"/>
					<path fill="#FFFFFF" d="M82.329,86.895l2.372,3.654h0.01v-3.654h0.572v4.508h-0.659l-2.354-3.617h-0.01v3.617H81.69v-4.508
						H82.329z"/>
					<path fill="#FFFFFF" d="M90.232,91.348c-0.26,0.105-0.523,0.156-0.79,0.156c-0.335,0-0.636-0.063-0.902-0.188
						c-0.264-0.123-0.49-0.291-0.674-0.502c-0.188-0.209-0.328-0.453-0.424-0.727c-0.099-0.273-0.147-0.559-0.147-0.852
						c0-0.33,0.049-0.643,0.138-0.939s0.227-0.559,0.403-0.779c0.183-0.225,0.403-0.402,0.671-0.535
						c0.268-0.131,0.579-0.199,0.936-0.199c0.245,0,0.476,0.029,0.691,0.086c0.218,0.057,0.41,0.146,0.583,0.27
						c0.169,0.123,0.315,0.277,0.427,0.463c0.116,0.189,0.195,0.416,0.236,0.678h-0.599c-0.029-0.17-0.083-0.318-0.164-0.443
						c-0.079-0.123-0.18-0.227-0.298-0.305c-0.117-0.082-0.252-0.141-0.401-0.18c-0.148-0.039-0.306-0.061-0.476-0.061
						c-0.273,0-0.509,0.055-0.705,0.164c-0.193,0.109-0.354,0.254-0.48,0.432c-0.124,0.18-0.215,0.383-0.272,0.613
						c-0.061,0.229-0.088,0.465-0.088,0.703c0,0.236,0.033,0.463,0.102,0.68c0.067,0.219,0.164,0.408,0.294,0.576
						c0.133,0.166,0.294,0.297,0.484,0.396c0.189,0.098,0.416,0.148,0.666,0.148c0.236,0,0.446-0.037,0.625-0.113
						c0.184-0.076,0.335-0.18,0.459-0.313s0.217-0.289,0.281-0.467c0.063-0.18,0.09-0.373,0.084-0.578h-1.44v-0.508h1.975v2.379
						h-0.379l-0.155-0.564C90.713,91.074,90.493,91.246,90.232,91.348z"/>
				</g>
			</g>
			<path fill="#FFDD00" d="M84.136,52.822v3.668c-0.014,0.354-0.169,1.66-0.716,2.754c-0.313,0.623-0.707,1.098-1.17,1.406
				c-0.666,0.443-1.68,0.678-2.921,0.678c-3.692,0-6.935,0.912-9.632,2.711c-2.239,1.49-4.015,3.531-5.277,6.063
				c-1.941,3.885-1.998,7.711-1.998,8.135v3.615H74.57v-3.525c0.031-0.543,0.214-1.789,0.716-2.793
				c0.306-0.617,0.692-1.082,1.148-1.385c0.66-0.439,1.662-0.672,2.895-0.672c1.701,0,3.303-0.203,4.807-0.588v8.896h7.29V52.822
				H84.136z M88.997,79.424h-2.429V69.371c-2.088,1.109-4.512,1.676-7.239,1.676c-1.742,0-3.169,0.363-4.243,1.08
				c-0.809,0.541-1.477,1.32-1.972,2.318c-0.907,1.814-0.976,3.838-0.974,3.793v1.186H69.71v-1.186c0,0,0.051-2.518,1.229-4.879
				c0.691-1.381,1.634-2.477,2.803-3.254c1.479-0.988,3.359-1.488,5.588-1.488c2.72,0,5.064-0.641,6.965-1.902
				c1.052-0.703,1.949-1.605,2.703-2.668V79.424z M88.997,56.49c0,0.023-0.016,2.492-1.23,4.926
				c-0.699,1.391-1.646,2.492-2.819,3.275c-1.495,0.994-3.384,1.496-5.618,1.496c-2.715,0-5.052,0.639-6.937,1.895
				c-1.526,1.016-2.745,2.428-3.626,4.191c-1.458,2.92-1.484,5.934-1.484,5.965v1.186h-2.432v-1.188c0-0.146,0.022-3.607,1.74-7.049
				c1.071-2.146,2.572-3.871,4.454-5.127c2.293-1.527,5.08-2.301,8.284-2.301c1.751,0,3.186-0.369,4.27-1.088
				c0.818-0.549,1.491-1.338,1.994-2.342c0.91-1.82,0.976-3.77,0.976-3.84c0-0.033,0-1.238,0-1.238h2.429V56.49z"/>
		</g>
	</g>
</g>
</svg>
